<svg xmlns="http://www.w3.org/2000/svg" version="1.1" xmlns:xlink="http://www.w3.org/1999/xlink" xmlns:svgjs="http://svgjs.dev/svgjs" width="2000" height="2024" viewBox="0 0 2000 2024"><g transform="matrix(1,0,0,1,1.7678688524587187,0.8194331983804659)"><svg viewBox="0 0 244 247" data-background-color="#235789" preserveAspectRatio="xMidYMid meet" height="2024" width="2000" xmlns="http://www.w3.org/2000/svg" xmlns:xlink="http://www.w3.org/1999/xlink"><g id="tight-bounds" transform="matrix(1,0,0,1,-0.21567999999996346,-0.09999999999999432)"><svg viewBox="0 0 244.43135999999996 247.2" height="247.2" width="244.43135999999996"><g><svg></svg></g><g><svg viewBox="0 0 244.43135999999996 247.2" height="247.2" width="244.43135999999996"><g transform="matrix(1,0,0,1,0,74.4243870982785)"><svg viewBox="0 0 244.43135999999996 98.35122580344299" height="98.35122580344299" width="244.43135999999996"><g><svg viewBox="0 0 244.43135999999996 98.35122580344299" height="98.35122580344299" width="244.43135999999996"><g><svg viewBox="0 0 244.43135999999996 98.35122580344299" height="98.35122580344299" width="244.43135999999996"><g transform="matrix(1,0,0,1,0,68.87576975520784)"><svg viewBox="0 0 244.43135999999996 29.47545604823514" height="29.47545604823514" width="244.43135999999996"><g id="textblocktransform"><svg viewBox="0 0 244.43135999999996 29.47545604823514" height="29.47545604823514" width="244.43135999999996" id="textblock"><g><svg viewBox="0 0 244.43135999999996 29.47545604823514" height="29.47545604823514" width="244.43135999999996"><g transform="matrix(1,0,0,1,0,0)"><svg width="244.43135999999996" viewBox="3 -38 398.01 48" height="29.47545604823514" data-palette-color="#f1d302"><path d="M14.75 0.6L14.75 0.6Q11.6 0.6 9.63-0.38 7.65-1.35 6.85-3L6.85-3 6.6-3 6.6 0 3 0 3-10.25 6.6-10.25 6.6-7.95Q6.6-6.7 6.98-5.63 7.35-4.55 8.22-3.75 9.1-2.95 10.53-2.5 11.95-2.05 14-2.05L14-2.05Q18.35-2.05 20.28-3.9 22.2-5.75 22.2-8.85L22.2-8.85Q22.2-11.5 20.73-13 19.25-14.5 16.1-15.35L16.1-15.35 13.35-16.05Q8.7-17.25 6.15-19.65 3.6-22.05 3.6-26.25L3.6-26.25Q3.6-28.35 4.4-30.08 5.2-31.8 6.65-33 8.1-34.2 10.13-34.85 12.15-35.5 14.6-35.5L14.6-35.5Q17.45-35.5 19.28-34.63 21.1-33.75 21.85-32.2L21.85-32.2 22.15-32.2 22.15-34.9 25.75-34.9 25.75-25.15 22.15-25.15 22.15-27.45Q22.15-28.7 21.78-29.7 21.4-30.7 20.5-31.4 19.6-32.1 18.15-32.48 16.7-32.85 14.6-32.85L14.6-32.85Q11.1-32.85 9.35-31.25 7.6-29.65 7.6-27.05L7.6-27.05Q7.6-24.35 9.18-22.83 10.75-21.3 14.15-20.4L14.15-20.4 16.7-19.75Q21.25-18.55 23.7-16.15 26.15-13.75 26.15-9.85L26.15-9.85Q26.15-7.6 25.4-5.68 24.65-3.75 23.2-2.35 21.75-0.95 19.63-0.18 17.5 0.6 14.75 0.6ZM43.5-1.85L43.5-1.85Q45.35-1.85 46.72-2.48 48.1-3.1 48.97-4.23 49.85-5.35 50.27-6.88 50.7-8.4 50.7-10.2L50.7-10.2 50.7-15.6Q50.7-17.4 50.27-18.93 49.85-20.45 48.97-21.58 48.1-22.7 46.72-23.33 45.35-23.95 43.5-23.95L43.5-23.95Q41.6-23.95 40.25-23.33 38.9-22.7 38.02-21.58 37.15-20.45 36.72-18.93 36.3-17.4 36.3-15.6L36.3-15.6 36.3-10.2Q36.3-8.4 36.72-6.88 37.15-5.35 38.02-4.23 38.9-3.1 40.25-2.48 41.6-1.85 43.5-1.85ZM43.5 0.6L43.5 0.6Q40.85 0.6 38.65-0.35 36.45-1.3 34.9-3.08 33.35-4.85 32.5-7.33 31.65-9.8 31.65-12.9L31.65-12.9Q31.65-15.95 32.5-18.45 33.35-20.95 34.9-22.73 36.45-24.5 38.65-25.45 40.85-26.4 43.5-26.4L43.5-26.4Q46.15-26.4 48.35-25.45 50.55-24.5 52.1-22.73 53.65-20.95 54.5-18.45 55.35-15.95 55.35-12.9L55.35-12.9Q55.35-9.8 54.5-7.33 53.65-4.85 52.1-3.08 50.55-1.3 48.35-0.35 46.15 0.6 43.5 0.6ZM68.25 0.6L68.25 0.6Q64.65 0.6 62.62-1.28 60.6-3.15 60.6-6.4L60.6-6.4Q60.6-8.25 61.2-9.68 61.8-11.1 63.17-12.05 64.55-13 66.75-13.5 68.95-14 72.09-14L72.09-14 75.8-14 75.8-17.8Q75.8-20.85 74.32-22.48 72.84-24.1 69.9-24.1L69.9-24.1Q68.59-24.1 67.5-23.88 66.4-23.65 65.7-23.25L65.7-23.25 65.7-23.15Q66.25-22.85 66.77-22.25 67.3-21.65 67.3-20.55L67.3-20.55Q67.3-19.25 66.55-18.53 65.8-17.8 64.55-17.8L64.55-17.8Q63.35-17.8 62.57-18.53 61.8-19.25 61.8-20.7L61.8-20.7Q61.8-21.8 62.45-22.83 63.1-23.85 64.3-24.65 65.5-25.45 67.27-25.93 69.05-26.4 71.3-26.4L71.3-26.4Q75.34-26.4 77.62-24.3 79.9-22.2 79.9-18.4L79.9-18.4 79.9-2.15 83.65-2.15 83.65-0.4Q83.09 0 82.17 0.3 81.25 0.6 80.09 0.6L80.09 0.6Q78.15 0.6 77.09-0.5 76.05-1.6 76.05-3.45L76.05-3.45 76.05-3.8 75.8-3.8Q75.45-2.95 74.87-2.15 74.3-1.35 73.4-0.75 72.5-0.15 71.22 0.23 69.95 0.6 68.25 0.6ZM70-2.15L70-2.15Q72.4-2.15 74.09-3.38 75.8-4.6 75.8-7.15L75.8-7.15 75.8-12 72.55-12Q70.4-12 68.95-11.68 67.5-11.35 66.65-10.73 65.8-10.1 65.42-9.2 65.05-8.3 65.05-7.1L65.05-7.1 65.05-6.05Q65.05-4.15 66.34-3.15 67.65-2.15 70-2.15ZM87.89 0L87.89-2.3 91.59-2.3 91.59-22.55 87.89-23.2 87.89-24.9 95.59-26.4 95.59-21.9 95.84-21.9Q96.19-22.7 96.72-23.5 97.24-24.3 98.02-24.95 98.79-25.6 99.82-26 100.84-26.4 102.19-26.4L102.19-26.4Q104.39-26.4 105.72-25.35 107.04-24.3 107.04-22.3L107.04-22.3Q107.04-20.8 106.29-19.95 105.54-19.1 104.34-19.1L104.34-19.1Q102.99-19.1 102.19-19.83 101.39-20.55 101.39-21.7L101.39-21.7Q101.39-22.7 101.82-23.33 102.24-23.95 102.79-24.05L102.79-24.05 102.79-24.15Q102.59-24.2 102.29-24.23 101.99-24.25 101.54-24.25L101.54-24.25Q100.49-24.25 99.44-23.73 98.39-23.2 97.57-22.38 96.74-21.55 96.22-20.5 95.69-19.45 95.69-18.4L95.69-18.4 95.69-2.3 100.39-2.3 100.39 0 87.89 0ZM129.29 0.6L129.29 0.6Q125.69 0.6 123.66-1.28 121.64-3.15 121.64-6.4L121.64-6.4Q121.64-8.25 122.24-9.68 122.84-11.1 124.21-12.05 125.59-13 127.79-13.5 129.99-14 133.14-14L133.14-14 136.84-14 136.84-17.8Q136.84-20.85 135.36-22.48 133.89-24.1 130.94-24.1L130.94-24.1Q129.64-24.1 128.54-23.88 127.44-23.65 126.74-23.25L126.74-23.25 126.74-23.15Q127.29-22.85 127.81-22.25 128.34-21.65 128.34-20.55L128.34-20.55Q128.34-19.25 127.59-18.53 126.84-17.8 125.59-17.8L125.59-17.8Q124.39-17.8 123.61-18.53 122.84-19.25 122.84-20.7L122.84-20.7Q122.84-21.8 123.49-22.83 124.14-23.85 125.34-24.65 126.54-25.45 128.31-25.93 130.09-26.4 132.34-26.4L132.34-26.4Q136.39-26.4 138.66-24.3 140.94-22.2 140.94-18.4L140.94-18.4 140.94-2.15 144.69-2.15 144.69-0.4Q144.14 0 143.21 0.3 142.29 0.6 141.14 0.6L141.14 0.6Q139.19 0.6 138.14-0.5 137.09-1.6 137.09-3.45L137.09-3.45 137.09-3.8 136.84-3.8Q136.49-2.95 135.91-2.15 135.34-1.35 134.44-0.75 133.54-0.15 132.26 0.23 130.99 0.6 129.29 0.6ZM131.04-2.15L131.04-2.15Q133.44-2.15 135.14-3.38 136.84-4.6 136.84-7.15L136.84-7.15 136.84-12 133.59-12Q131.44-12 129.99-11.68 128.54-11.35 127.69-10.73 126.84-10.1 126.46-9.2 126.09-8.3 126.09-7.1L126.09-7.1 126.09-6.05Q126.09-4.15 127.39-3.15 128.69-2.15 131.04-2.15ZM148.94 0L148.94-2.3 152.64-2.3 152.64-22.55 148.94-23.2 148.94-24.9 156.64-26.4 156.64-21.9 156.84-21.9Q157.14-22.65 157.76-23.45 158.39-24.25 159.31-24.9 160.24-25.55 161.49-25.98 162.74-26.4 164.24-26.4L164.24-26.4Q168.89-26.4 170.91-23.98 172.94-21.55 172.94-16.7L172.94-16.7 172.94-2.3 176.64-2.3 176.64 0 165.14 0 165.14-2.3 168.84-2.3 168.84-16.35Q168.84-23.55 162.79-23.55L162.79-23.55Q161.69-23.55 160.61-23.25 159.54-22.95 158.66-22.3 157.79-21.65 157.26-20.7 156.74-19.75 156.74-18.45L156.74-18.45 156.74-2.3 160.44-2.3 160.44 0 148.94 0ZM191.43 0.6L191.43 0.6Q186.63 0.6 183.76-2.88 180.88-6.35 180.88-12.9L180.88-12.9Q180.88-19.45 183.76-22.93 186.63-26.4 191.43-26.4L191.43-26.4Q194.43-26.4 196.31-25.1 198.18-23.8 199.03-21.95L199.03-21.95 199.23-21.95 199.23-34.15 195.48-34.8 195.48-36.55 203.33-38 203.33-3.25 207.03-2.6 207.03-0.9 199.23 0.6 199.23-3.9 199.03-3.9Q198.18-2.05 196.33-0.73 194.48 0.6 191.43 0.6ZM192.63-2.25L192.63-2.25Q193.83-2.25 195.03-2.6 196.23-2.95 197.16-3.6 198.08-4.25 198.66-5.23 199.23-6.2 199.23-7.4L199.23-7.4 199.23-18.4Q199.23-19.6 198.66-20.58 198.08-21.55 197.16-22.2 196.23-22.85 195.03-23.2 193.83-23.55 192.63-23.55L192.63-23.55Q189.18-23.55 187.26-21.23 185.33-18.9 185.33-15L185.33-15 185.33-10.8Q185.33-6.9 187.26-4.58 189.18-2.25 192.63-2.25ZM223.13 0L223.13-2.3 226.88-2.3 226.88-32.6 223.13-32.6 223.13-34.9 248.93-34.9 248.93-26.5 245.33-26.5 245.33-32.45 231.18-32.45 231.18-19.2 241.08-19.2 241.08-23.2 244.08-23.2 244.08-12.75 241.08-12.75 241.08-16.75 231.18-16.75 231.18-2.45 245.83-2.45 245.83-8.85 249.43-8.85 249.43 0 223.13 0ZM253.98 0L253.98-2.3 256.83-2.3 264.38-12.6 256.73-23.5 254.13-23.5 254.13-25.8 264.63-25.8 264.63-23.5 261.68-23.5 267.28-15.3 267.48-15.3 272.78-23.5 269.68-23.5 269.68-25.8 278.73-25.8 278.73-23.5 275.88-23.5 268.73-13.35 276.38-2.3 278.98-2.3 278.98 0 268.43 0 268.43-2.3 271.38-2.3 265.83-10.65 265.63-10.65 259.93-2.3 263.03-2.3 263.03 0 253.98 0ZM282.47 10L282.47 7.7 286.17 7.7 286.17-22.55 282.47-23.2 282.47-24.9 290.27-26.4 290.27-21.9 290.47-21.9Q291.32-23.75 293.17-25.08 295.02-26.4 298.07-26.4L298.07-26.4Q302.87-26.4 305.75-22.93 308.62-19.45 308.62-12.9L308.62-12.9Q308.62-6.35 305.75-2.88 302.87 0.6 298.07 0.6L298.07 0.6Q295.07 0.6 293.2-0.7 291.32-2 290.47-3.85L290.47-3.85 290.27-3.85 290.27 7.7 294.97 7.7 294.97 10 282.47 10ZM296.87-2.25L296.87-2.25Q300.32-2.25 302.25-4.58 304.17-6.9 304.17-10.8L304.17-10.8 304.17-15Q304.17-18.9 302.25-21.23 300.32-23.55 296.87-23.55L296.87-23.55Q295.67-23.55 294.47-23.2 293.27-22.85 292.35-22.2 291.42-21.55 290.85-20.58 290.27-19.6 290.27-18.4L290.27-18.4 290.27-7.4Q290.27-6.2 290.85-5.23 291.42-4.25 292.35-3.6 293.27-2.95 294.47-2.6 295.67-2.25 296.87-2.25ZM312.87 0L312.87-2.3 316.57-2.3 316.57-34.15 312.87-34.8 312.87-36.55 320.67-38 320.67-2.3 324.37-2.3 324.37 0 312.87 0ZM340.22-1.85L340.22-1.85Q342.07-1.85 343.44-2.48 344.82-3.1 345.69-4.23 346.57-5.35 346.99-6.88 347.42-8.4 347.42-10.2L347.42-10.2 347.42-15.6Q347.42-17.4 346.99-18.93 346.57-20.45 345.69-21.58 344.82-22.7 343.44-23.33 342.07-23.95 340.22-23.95L340.22-23.95Q338.32-23.95 336.97-23.33 335.62-22.7 334.74-21.58 333.87-20.45 333.44-18.93 333.02-17.4 333.02-15.6L333.02-15.6 333.02-10.2Q333.02-8.4 333.44-6.88 333.87-5.35 334.74-4.23 335.62-3.1 336.97-2.48 338.32-1.85 340.22-1.85ZM340.22 0.6L340.22 0.6Q337.57 0.6 335.37-0.35 333.17-1.3 331.62-3.08 330.07-4.85 329.22-7.33 328.37-9.8 328.37-12.9L328.37-12.9Q328.37-15.95 329.22-18.45 330.07-20.95 331.62-22.73 333.17-24.5 335.37-25.45 337.57-26.4 340.22-26.4L340.22-26.4Q342.87-26.4 345.07-25.45 347.27-24.5 348.82-22.73 350.37-20.95 351.22-18.45 352.07-15.95 352.07-12.9L352.07-12.9Q352.07-9.8 351.22-7.33 350.37-4.85 348.82-3.08 347.27-1.3 345.07-0.35 342.87 0.6 340.22 0.6ZM356.82 0L356.82-2.3 360.52-2.3 360.52-22.55 356.82-23.2 356.82-24.9 364.52-26.4 364.52-21.9 364.77-21.9Q365.12-22.7 365.64-23.5 366.17-24.3 366.94-24.95 367.72-25.6 368.74-26 369.77-26.4 371.12-26.4L371.12-26.4Q373.32-26.4 374.64-25.35 375.97-24.3 375.97-22.3L375.97-22.3Q375.97-20.8 375.22-19.95 374.47-19.1 373.27-19.1L373.27-19.1Q371.92-19.1 371.12-19.83 370.32-20.55 370.32-21.7L370.32-21.7Q370.32-22.7 370.74-23.33 371.17-23.95 371.72-24.05L371.72-24.05 371.72-24.15Q371.52-24.2 371.22-24.23 370.92-24.25 370.47-24.25L370.47-24.25Q369.42-24.25 368.37-23.73 367.32-23.2 366.49-22.38 365.67-21.55 365.14-20.5 364.62-19.45 364.62-18.4L364.62-18.4 364.62-2.3 369.32-2.3 369.32 0 356.82 0ZM390.41 0.6L390.41 0.6Q387.66 0.6 385.49-0.38 383.31-1.35 381.81-3.1 380.31-4.85 379.51-7.35 378.71-9.85 378.71-12.9L378.71-12.9Q378.71-15.9 379.59-18.38 380.46-20.85 381.99-22.65 383.51-24.45 385.61-25.43 387.71-26.4 390.21-26.4L390.21-26.4Q392.76-26.4 394.76-25.5 396.76-24.6 398.14-22.98 399.51-21.35 400.26-19.1 401.01-16.85 401.01-14.2L401.01-14.2 401.01-13.05 383.26-13.05 383.26-11.75Q383.26-7.5 385.39-5.05 387.51-2.6 391.06-2.6L391.06-2.6Q394.16-2.6 395.99-3.88 397.81-5.15 398.86-7.2L398.86-7.2 400.51-6.15Q400.01-4.85 399.14-3.63 398.26-2.4 397.01-1.48 395.76-0.55 394.11 0.03 392.46 0.6 390.41 0.6ZM383.26-15.95L383.26-15.35 396.71-15.35 396.71-15.85Q396.71-17.6 396.34-19.1 395.96-20.6 395.16-21.7 394.36-22.8 393.14-23.43 391.91-24.05 390.21-24.05L390.21-24.05Q388.51-24.05 387.21-23.45 385.91-22.85 385.04-21.75 384.16-20.65 383.71-19.18 383.26-17.7 383.26-15.95L383.26-15.95Z" opacity="1" transform="matrix(1,0,0,1,0,0)" fill="#000000" class="wordmark-text-0" data-fill-palette-color="primary" id="text-0"></path></svg></g></svg></g></svg></g></svg></g><g transform="matrix(1,0,0,1,91.02746457617145,0)"><svg viewBox="0 0 62.376430847657055 61.917321993164684" height="61.917321993164684" width="62.376430847657055"><g><svg xmlns="http://www.w3.org/2000/svg" xmlns:xlink="http://www.w3.org/1999/xlink" version="1.1" x="0" y="0" viewBox="1.7420000000000004 2 61.00300000000001 60.554" style="enable-background:new 0 0 64 64;" xml:space="preserve" height="61.917321993164684" width="62.376430847657055" class="icon-icon-0" data-fill-palette-color="accent" id="icon-0"><path d="M10.312 45.669c-0.524 0.47-1.033 0.957-1.527 1.46-0.144 0.146-0.283 0.297-0.425 0.446-0.362 0.382-0.716 0.773-1.062 1.173-0.15 0.174-0.304 0.344-0.451 0.52-0.407 0.491-0.8 0.997-1.181 1.513-0.173 0.234-0.34 0.474-0.508 0.713-0.268 0.382-0.527 0.772-0.781 1.167-0.134 0.209-0.273 0.414-0.403 0.627C3.968 53.3 3.961 53.31 3.954 53.322c-0.003 0.004-0.003 0.01-0.005 0.014-0.825 1.358-1.568 2.78-2.207 4.27l1.838 0.788c0.222-0.518 0.473-1.018 0.72-1.52l0.715 4.291C5.094 61.646 5.511 62 6 62h4c0.127 0 0.253-0.024 0.372-0.071l4.751-1.901 6.735 0.962c0.459 0.068 0.899-0.19 1.07-0.618l1.878-4.697 7.723-4.827c0.25-0.156 0.418-0.415 0.46-0.707l1-7c0.073-0.507-0.25-0.987-0.747-1.112l-3.845-0.961-2.361-1.49c0.164-0.031 0.328-0.064 0.493-0.092 0.528-0.091 1.057-0.167 1.589-0.232 0.257-0.031 0.515-0.061 0.774-0.086 0.525-0.051 1.052-0.087 1.579-0.112 0.273-0.013 0.547-0.024 0.822-0.03 0.546-0.012 1.092-0.01 1.639 0.005 0.202 0.006 0.404 0.011 0.606 0.021 0.014 0.001 0.029 0.001 0.043 0.002 0.558 0.027 1.116 0.074 1.673 0.13 0.215 0.022 0.43 0.039 0.644 0.066 0.553 0.067 1.103 0.157 1.653 0.253 0.217 0.038 0.437 0.068 0.653 0.111 0.57 0.112 1.135 0.25 1.7 0.393 0.724 0.185 1.44 0.393 2.147 0.627 0.31 0.103 0.618 0.211 0.925 0.323 0.407 0.149 0.812 0.302 1.213 0.467 0.308 0.127 0.611 0.264 0.914 0.401 0.111 0.05 0.221 0.103 0.332 0.154l-3.709 1.06c-0.286 0.082-0.521 0.287-0.641 0.559-0.12 0.272-0.112 0.584 0.021 0.85l0.678 1.355-3.49 3.49c-0.391 0.391-0.391 1.023 0 1.414l4 4c0.212 0.212 0.503 0.321 0.806 0.288 0.298-0.029 0.567-0.191 0.733-0.44L48.535 49H51v3.419l-6.496 3.712c-0.077 0.044-0.148 0.098-0.211 0.161l-2 2c-0.337 0.337-0.39 0.865-0.125 1.262l2 3 1.664-1.109-1.545-2.318 1.326-1.326 6.884-3.934C52.808 53.69 53 53.359 53 53v-5c0-0.552-0.448-1-1-1h-4c-0.334 0-0.646 0.167-0.832 0.445l-3.323 4.985L41.414 50l3.293-3.293c0.304-0.304 0.38-0.769 0.188-1.154l-0.461-0.922 4.597-1.313c0.039 0.023 0.08 0.042 0.119 0.065 0.153 0.09 0.298 0.19 0.45 0.282 0.486 0.296 0.97 0.597 1.442 0.919 0.431 0.295 0.851 0.603 1.266 0.917 0.111 0.084 0.226 0.16 0.336 0.245 3.397 2.643 6.239 5.949 8.346 9.739l0.004-0.002c0.001 0.002 0.002 0.003 0.003 0.005l1.748-0.971c-1.154-2.078-2.512-4.001-4.033-5.758-0.028-0.032-0.059-0.062-0.087-0.095-0.476-0.545-0.965-1.075-1.473-1.586-0.108-0.109-0.223-0.21-0.332-0.318-0.435-0.426-0.874-0.847-1.33-1.248-0.173-0.152-0.354-0.295-0.53-0.444-0.404-0.342-0.809-0.682-1.228-1.004-0.228-0.175-0.465-0.339-0.697-0.509-0.015-0.011-0.029-0.021-0.044-0.032l1.922-4.614 2.99-6.478 2.992-5.984c0.122-0.244 0.139-0.528 0.047-0.785-0.092-0.257-0.286-0.465-0.535-0.576l-0.271-0.12 1.759-3.519c0.226-0.451 0.08-1-0.34-1.279l-3-2-3-2c-0.239-0.16-0.536-0.209-0.812-0.134-0.277 0.073-0.509 0.263-0.638 0.519l-2.345 4.691-0.354-0.157c-0.491-0.218-1.062-0.012-1.301 0.466l-3 6-3 6c-0.005 0.01-0.004 0.02-0.008 0.03-0.004 0.009-0.013 0.015-0.016 0.023l-1.691 3.947-1.406-7.731C40.897 29.346 40.483 29 40 29h-1.246l-1.793-6.275C36.839 22.296 36.446 22 36 22h-0.153l-1.861-11.165c-0.005-0.032-0.023-0.058-0.032-0.089C34.574 10.406 35 9.756 35 9V7c0-1.103-0.897-2-2-2V2h-2v3c-1.103 0-2 0.897-2 2v2c0 0.756 0.426 1.406 1.045 1.747-0.008 0.031-0.026 0.057-0.032 0.089L28.153 22H28c-0.446 0-0.839 0.296-0.961 0.725L25.246 29H24c-0.483 0-0.897 0.346-0.984 0.821l-1.441 7.924-3.647-9.117-4-10c-0.005-0.013-0.017-0.022-0.023-0.035-0.042-0.094-0.099-0.179-0.168-0.257-0.016-0.018-0.03-0.037-0.047-0.054-0.01-0.009-0.016-0.021-0.026-0.03l-9-8c-0.283-0.251-0.683-0.321-1.036-0.181-0.352 0.141-0.594 0.468-0.625 0.846l-1 12c-0.001 0.013 0.002 0.026 0.002 0.039-0.001 0.024 0.003 0.048 0.003 0.072 0.003 0.104 0.021 0.206 0.055 0.302 0.005 0.014 0.002 0.028 0.008 0.041l4 10 4.744 11.861c-0.075 0.065-0.15 0.129-0.225 0.195C10.498 45.508 10.404 45.587 10.312 45.669zM26.78 37.57C28.007 35.972 29.922 35 32 35c1.921 0 3.708 0.837 4.937 2.233-0.098-0.011-0.195-0.013-0.292-0.023-0.284-0.03-0.567-0.059-0.852-0.082-0.35-0.029-0.702-0.051-1.054-0.069-0.185-0.01-0.371-0.024-0.555-0.03-0.196-0.007-0.392-0.005-0.588-0.008C33.397 37.017 33.2 37 33 37c-0.191 0-0.379 0.018-0.57 0.021-0.088 0.002-0.177-0.002-0.265 0-0.348 0.008-0.694 0.029-1.041 0.048-0.352 0.019-0.704 0.038-1.055 0.068-0.158 0.014-0.316 0.026-0.474 0.042-0.326 0.033-0.651 0.078-0.976 0.12-0.29 0.037-0.581 0.068-0.87 0.113-0.157 0.024-0.313 0.057-0.47 0.084C27.114 37.524 26.946 37.539 26.78 37.57zM28.757 42.97l3.125 0.781-0.807 5.647-7.605 4.753c-0.18 0.113-0.32 0.28-0.399 0.477l-1.708 4.271-6.222-0.889c-0.175-0.025-0.351-0.004-0.513 0.061L9.808 60h-2.96l-0.992-5.952c0.011-0.017 0.022-0.033 0.033-0.05 0.308-0.491 0.632-0.97 0.964-1.441 0.158-0.224 0.319-0.445 0.482-0.664 0.312-0.42 0.633-0.832 0.964-1.235 0.152-0.185 0.308-0.367 0.464-0.549 0.347-0.403 0.704-0.798 1.07-1.182 0.133-0.14 0.266-0.281 0.402-0.418 0.464-0.47 0.94-0.928 1.431-1.368 0.071-0.063 0.144-0.124 0.215-0.186 0.326-0.286 0.666-0.556 1.003-0.829 0.507-0.41 1.026-0.801 1.555-1.178 0.172-0.123 0.342-0.249 0.517-0.368 0.553-0.378 1.12-0.733 1.694-1.075 0.152-0.09 0.299-0.187 0.452-0.275 0.707-0.405 1.428-0.784 2.166-1.134 0.055-0.026 0.111-0.052 0.167-0.078 0.741-0.347 1.496-0.666 2.265-0.956 0.405-0.153 0.819-0.286 1.231-0.422 0.456-0.151 0.916-0.289 1.378-0.419l4.159 2.625C28.556 42.902 28.654 42.944 28.757 42.97zM44.018 38.829l1.483-3.46 7.216 3.608-1.407 3.378c-0.215-0.138-0.437-0.26-0.654-0.392-0.219-0.133-0.438-0.267-0.66-0.396-0.088-0.051-0.173-0.106-0.261-0.156-0.025-0.014-0.048-0.031-0.073-0.045-0.001 0-0.002 0-0.003-0.001-0.346-0.195-0.699-0.373-1.051-0.555-0.152-0.079-0.302-0.161-0.456-0.238-0.585-0.292-1.178-0.566-1.778-0.824-0.05-0.022-0.1-0.046-0.15-0.067C45.498 39.374 44.765 39.085 44.018 38.829zM58.306 24.153l-1.443-0.641 1.525-3.051 1.323 0.882L58.306 24.153zM55.388 18.46l1.323 0.882-1.678 3.356-1.443-0.641L55.388 18.46zM51.282 23.673c0.052 0.055 0.098 0.115 0.164 0.159l3 2 3 2c0.134 0.09 0.288 0.134 0.445 0.152l-1.357 2.714-2.39-1.062-4.78-2.125L51.282 23.673zM48.467 29.302l1.2 0.533 6 2.667-2.143 4.642-7.183-3.591L48.467 29.302zM31 7h2l0.001 2H31V7zM31.847 12h0.306l1.667 10h-3.639L31.847 12zM28.754 24H29h6 0.246l1.429 5h-9.349L28.754 24zM24.834 31H26h12 1.166l1.239 6.816c-0.102-0.023-0.206-0.037-0.308-0.058-0.165-0.035-0.33-0.071-0.496-0.104C38.134 34.817 35.22 33 32 33c-3.429 0-6.517 2.033-7.877 5.179-0.14 0.038-0.277 0.083-0.416 0.122-0.07 0.02-0.14 0.034-0.21 0.054L24.834 31zM19.981 39.592c-0.398 0.164-0.791 0.337-1.181 0.516-0.133 0.061-0.267 0.12-0.4 0.183-0.668 0.317-1.325 0.654-1.969 1.012-0.07 0.039-0.137 0.08-0.207 0.119-0.016 0.009-0.032 0.019-0.049 0.028-0.027 0.015-0.053 0.031-0.079 0.046-0.571 0.326-1.131 0.669-1.681 1.027-0.069 0.045-0.14 0.089-0.209 0.134-0.602 0.399-1.191 0.815-1.766 1.252L8.3 33.557l8.143-3.257 3.69 9.224C20.081 39.545 20.032 39.571 19.981 39.592zM4.3 23.557l8.143-3.257 3.257 8.142L7.557 31.7 4.3 23.557zM4.831 13.076l6.296 5.596L4.131 21.47 4.831 13.076z" fill="#000000" data-fill-palette-color="accent"></path><path d="M10 23c-1.654 0-3 1.346-3 3s1.346 3 3 3 3-1.346 3-3S11.654 23 10 23zM10 27c-0.551 0-1-0.449-1-1s0.449-1 1-1 1 0.449 1 1S10.551 27 10 27z" fill="#000000" data-fill-palette-color="accent"></path></svg></g></svg></g><g></g></svg></g></svg></g></svg></g><path d="M0 68.424L0 1 244.431 1 244.431 68.424 241.773 68.424 241.773 3.658 2.658 3.658 2.658 68.424 0 68.424M0 178.776L0 246.2 244.431 246.2 244.431 178.776 241.773 178.776 241.773 243.542 2.658 243.542 2.658 178.776 0 178.776" fill="#000000" stroke="transparent" data-fill-palette-color="primary"></path></svg></g><defs></defs></svg><rect width="244.43135999999996" height="247.2" fill="none" stroke="none" visibility="hidden"></rect></g></svg></g></svg>