<svg xmlns="http://www.w3.org/2000/svg" version="1.1" xmlns:xlink="http://www.w3.org/1999/xlink" xmlns:svgjs="http://svgjs.dev/svgjs" width="2000" height="944" viewBox="0 0 2000 944"><g transform="matrix(1,0,0,1,-1.2121212121212466,1.2271847139109582)"><svg viewBox="0 0 396 187" data-background-color="#000000" preserveAspectRatio="xMidYMid meet" height="944" width="2000" xmlns="http://www.w3.org/2000/svg" xmlns:xlink="http://www.w3.org/1999/xlink"><g id="tight-bounds" transform="matrix(1,0,0,1,0.2400000000000091,-0.24309697192938984)"><svg viewBox="0 0 395.52 187.48619394385878" height="187.48619394385878" width="395.52"><g><svg viewBox="0 0 395.52 187.48619394385878" height="187.48619394385878" width="395.52"><g><svg viewBox="0 0 395.52 187.48619394385878" height="187.48619394385878" width="395.52"><g><svg viewBox="0 0 395.52 187.48619394385878" height="187.48619394385878" width="395.52"><g transform="matrix(1,0,0,1,0,140.61553600039502)"><svg viewBox="0 0 395.52 46.87065794346377" height="46.87065794346377" width="395.52"><g id="textblocktransform"><svg viewBox="0 0 395.52 46.87065794346377" height="46.87065794346377" width="395.52" id="textblock"><g><svg viewBox="0 0 395.52 46.87065794346377" height="46.87065794346377" width="395.52"><g transform="matrix(1,0,0,1,0,0)"><svg width="395.52" viewBox="3 -38 405.01 48" height="46.87065794346377" data-palette-color="#fff41f"><path d="M14.75 0.6L14.75 0.6Q11.6 0.6 9.63-0.38 7.65-1.35 6.85-3L6.85-3 6.6-3 6.6 0 3 0 3-10.25 6.6-10.25 6.6-7.95Q6.6-6.7 6.98-5.63 7.35-4.55 8.22-3.75 9.1-2.95 10.53-2.5 11.95-2.05 14-2.05L14-2.05Q18.35-2.05 20.28-3.9 22.2-5.75 22.2-8.85L22.2-8.85Q22.2-11.5 20.73-13 19.25-14.5 16.1-15.35L16.1-15.35 13.35-16.05Q8.7-17.25 6.15-19.65 3.6-22.05 3.6-26.25L3.6-26.25Q3.6-28.35 4.4-30.08 5.2-31.8 6.65-33 8.1-34.2 10.13-34.85 12.15-35.5 14.6-35.5L14.6-35.5Q17.45-35.5 19.28-34.63 21.1-33.75 21.85-32.2L21.85-32.2 22.15-32.2 22.15-34.9 25.75-34.9 25.75-25.15 22.15-25.15 22.15-27.45Q22.15-28.7 21.78-29.7 21.4-30.7 20.5-31.4 19.6-32.1 18.15-32.48 16.7-32.85 14.6-32.85L14.6-32.85Q11.1-32.85 9.35-31.25 7.6-29.65 7.6-27.05L7.6-27.05Q7.6-24.35 9.18-22.83 10.75-21.3 14.15-20.4L14.15-20.4 16.7-19.75Q21.25-18.55 23.7-16.15 26.15-13.75 26.15-9.85L26.15-9.85Q26.15-7.6 25.4-5.68 24.65-3.75 23.2-2.35 21.75-0.95 19.63-0.18 17.5 0.6 14.75 0.6ZM43.5-1.85L43.5-1.85Q45.35-1.85 46.72-2.48 48.1-3.1 48.97-4.23 49.85-5.35 50.27-6.88 50.7-8.4 50.7-10.2L50.7-10.2 50.7-15.6Q50.7-17.4 50.27-18.93 49.85-20.45 48.97-21.58 48.1-22.7 46.72-23.33 45.35-23.95 43.5-23.95L43.5-23.95Q41.6-23.95 40.25-23.33 38.9-22.7 38.02-21.58 37.15-20.45 36.72-18.93 36.3-17.4 36.3-15.6L36.3-15.6 36.3-10.2Q36.3-8.4 36.72-6.88 37.15-5.35 38.02-4.23 38.9-3.1 40.25-2.48 41.6-1.85 43.5-1.85ZM43.5 0.6L43.5 0.6Q40.85 0.6 38.65-0.35 36.45-1.3 34.9-3.08 33.35-4.85 32.5-7.33 31.65-9.8 31.65-12.9L31.65-12.9Q31.65-15.95 32.5-18.45 33.35-20.95 34.9-22.73 36.45-24.5 38.65-25.45 40.85-26.4 43.5-26.4L43.5-26.4Q46.15-26.4 48.35-25.45 50.55-24.5 52.1-22.73 53.65-20.95 54.5-18.45 55.35-15.95 55.35-12.9L55.35-12.9Q55.35-9.8 54.5-7.33 53.65-4.85 52.1-3.08 50.55-1.3 48.35-0.35 46.15 0.6 43.5 0.6ZM68.25 0.6L68.25 0.6Q64.65 0.6 62.62-1.28 60.6-3.15 60.6-6.4L60.6-6.4Q60.6-8.25 61.2-9.68 61.8-11.1 63.17-12.05 64.55-13 66.75-13.5 68.95-14 72.09-14L72.09-14 75.8-14 75.8-17.8Q75.8-20.85 74.32-22.48 72.84-24.1 69.9-24.1L69.9-24.1Q68.59-24.1 67.5-23.88 66.4-23.65 65.7-23.25L65.7-23.25 65.7-23.15Q66.25-22.85 66.77-22.25 67.3-21.65 67.3-20.55L67.3-20.55Q67.3-19.25 66.55-18.53 65.8-17.8 64.55-17.8L64.55-17.8Q63.35-17.8 62.57-18.53 61.8-19.25 61.8-20.7L61.8-20.7Q61.8-21.8 62.45-22.83 63.1-23.85 64.3-24.65 65.5-25.45 67.27-25.93 69.05-26.4 71.3-26.4L71.3-26.4Q75.34-26.4 77.62-24.3 79.9-22.2 79.9-18.4L79.9-18.4 79.9-2.15 83.65-2.15 83.65-0.4Q83.09 0 82.17 0.3 81.25 0.6 80.09 0.6L80.09 0.6Q78.15 0.6 77.09-0.5 76.05-1.6 76.05-3.45L76.05-3.45 76.05-3.8 75.8-3.8Q75.45-2.95 74.87-2.15 74.3-1.35 73.4-0.75 72.5-0.15 71.22 0.23 69.95 0.6 68.25 0.6ZM70-2.15L70-2.15Q72.4-2.15 74.09-3.38 75.8-4.6 75.8-7.15L75.8-7.15 75.8-12 72.55-12Q70.4-12 68.95-11.68 67.5-11.35 66.65-10.73 65.8-10.1 65.42-9.2 65.05-8.3 65.05-7.1L65.05-7.1 65.05-6.05Q65.05-4.15 66.34-3.15 67.65-2.15 70-2.15ZM87.89 0L87.89-2.3 91.59-2.3 91.59-22.55 87.89-23.2 87.89-24.9 95.59-26.4 95.59-21.9 95.84-21.9Q96.19-22.7 96.72-23.5 97.24-24.3 98.02-24.95 98.79-25.6 99.82-26 100.84-26.4 102.19-26.4L102.19-26.4Q104.39-26.4 105.72-25.35 107.04-24.3 107.04-22.3L107.04-22.3Q107.04-20.8 106.29-19.95 105.54-19.1 104.34-19.1L104.34-19.1Q102.99-19.1 102.19-19.83 101.39-20.55 101.39-21.7L101.39-21.7Q101.39-22.7 101.82-23.33 102.24-23.95 102.79-24.05L102.79-24.05 102.79-24.15Q102.59-24.2 102.29-24.23 101.99-24.25 101.54-24.25L101.54-24.25Q100.49-24.25 99.44-23.73 98.39-23.2 97.57-22.38 96.74-21.55 96.22-20.5 95.69-19.45 95.69-18.4L95.69-18.4 95.69-2.3 100.39-2.3 100.39 0 87.89 0ZM119.94 0L119.94-2.3 122.59-2.3 133.94-34.9 138.69-34.9 149.99-2.3 152.64-2.3 152.64 0 140.84 0 140.84-2.3 145.34-2.3 142.24-11.35 128.64-11.35 125.54-2.3 130.04-2.3 130.04 0 119.94 0ZM135.34-31.25L129.34-13.75 141.49-13.75 135.64-31.25 135.34-31.25ZM155.94 0L155.94-2.3 159.64-2.3 159.64-22.55 155.94-23.2 155.94-24.9 163.64-26.4 163.64-21.9 163.84-21.9Q164.14-22.65 164.76-23.45 165.39-24.25 166.31-24.9 167.24-25.55 168.49-25.98 169.74-26.4 171.24-26.4L171.24-26.4Q175.89-26.4 177.91-23.98 179.94-21.55 179.94-16.7L179.94-16.7 179.94-2.3 183.64-2.3 183.64 0 172.14 0 172.14-2.3 175.84-2.3 175.84-16.35Q175.84-23.55 169.79-23.55L169.79-23.55Q168.69-23.55 167.61-23.25 166.54-22.95 165.66-22.3 164.79-21.65 164.26-20.7 163.74-19.75 163.74-18.45L163.74-18.45 163.74-2.3 167.44-2.3 167.44 0 155.94 0ZM198.43 0.6L198.43 0.6Q193.63 0.6 190.76-2.88 187.88-6.35 187.88-12.9L187.88-12.9Q187.88-19.45 190.76-22.93 193.63-26.4 198.43-26.4L198.43-26.4Q201.43-26.4 203.31-25.1 205.18-23.8 206.03-21.95L206.03-21.95 206.23-21.95 206.23-34.15 202.48-34.8 202.48-36.55 210.33-38 210.33-3.25 214.03-2.6 214.03-0.9 206.23 0.6 206.23-3.9 206.03-3.9Q205.18-2.05 203.33-0.73 201.48 0.6 198.43 0.6ZM199.63-2.25L199.63-2.25Q200.83-2.25 202.03-2.6 203.23-2.95 204.16-3.6 205.08-4.25 205.66-5.23 206.23-6.2 206.23-7.4L206.23-7.4 206.23-18.4Q206.23-19.6 205.66-20.58 205.08-21.55 204.16-22.2 203.23-22.85 202.03-23.2 200.83-23.55 199.63-23.55L199.63-23.55Q196.18-23.55 194.26-21.23 192.33-18.9 192.33-15L192.33-15 192.33-10.8Q192.33-6.9 194.26-4.58 196.18-2.25 199.63-2.25ZM230.13 0L230.13-2.3 233.88-2.3 233.88-32.6 230.13-32.6 230.13-34.9 255.93-34.9 255.93-26.5 252.33-26.5 252.33-32.45 238.18-32.45 238.18-19.2 248.08-19.2 248.08-23.2 251.08-23.2 251.08-12.75 248.08-12.75 248.08-16.75 238.18-16.75 238.18-2.45 252.83-2.45 252.83-8.85 256.43-8.85 256.43 0 230.13 0ZM260.98 0L260.98-2.3 263.83-2.3 271.38-12.6 263.73-23.5 261.13-23.5 261.13-25.8 271.63-25.8 271.63-23.5 268.68-23.5 274.28-15.3 274.48-15.3 279.78-23.5 276.68-23.5 276.68-25.8 285.73-25.8 285.73-23.5 282.88-23.5 275.73-13.35 283.38-2.3 285.98-2.3 285.98 0 275.43 0 275.43-2.3 278.38-2.3 272.83-10.65 272.63-10.65 266.93-2.3 270.03-2.3 270.03 0 260.98 0ZM289.47 10L289.47 7.7 293.17 7.7 293.17-22.55 289.47-23.2 289.47-24.9 297.27-26.4 297.27-21.9 297.47-21.9Q298.32-23.75 300.17-25.08 302.02-26.4 305.07-26.4L305.07-26.4Q309.87-26.4 312.75-22.93 315.62-19.45 315.62-12.9L315.62-12.9Q315.62-6.35 312.75-2.88 309.87 0.6 305.07 0.6L305.07 0.6Q302.07 0.6 300.2-0.7 298.32-2 297.47-3.85L297.47-3.85 297.27-3.85 297.27 7.7 301.97 7.7 301.97 10 289.47 10ZM303.87-2.25L303.87-2.25Q307.32-2.25 309.25-4.58 311.17-6.9 311.17-10.8L311.17-10.8 311.17-15Q311.17-18.9 309.25-21.23 307.32-23.55 303.87-23.55L303.87-23.55Q302.67-23.55 301.47-23.2 300.27-22.85 299.35-22.2 298.42-21.55 297.85-20.58 297.27-19.6 297.27-18.4L297.27-18.4 297.27-7.4Q297.27-6.2 297.85-5.23 298.42-4.25 299.35-3.6 300.27-2.95 301.47-2.6 302.67-2.25 303.87-2.25ZM319.87 0L319.87-2.3 323.57-2.3 323.57-34.15 319.87-34.8 319.87-36.55 327.67-38 327.67-2.3 331.37-2.3 331.37 0 319.87 0ZM347.22-1.85L347.22-1.85Q349.07-1.85 350.44-2.48 351.82-3.1 352.69-4.23 353.57-5.35 353.99-6.88 354.42-8.4 354.42-10.2L354.42-10.2 354.42-15.6Q354.42-17.4 353.99-18.93 353.57-20.45 352.69-21.58 351.82-22.7 350.44-23.33 349.07-23.95 347.22-23.95L347.22-23.95Q345.32-23.95 343.97-23.33 342.62-22.7 341.74-21.58 340.87-20.45 340.44-18.93 340.02-17.4 340.02-15.6L340.02-15.6 340.02-10.2Q340.02-8.4 340.44-6.88 340.87-5.35 341.74-4.23 342.62-3.1 343.97-2.48 345.32-1.85 347.22-1.85ZM347.22 0.6L347.22 0.6Q344.57 0.6 342.37-0.35 340.17-1.3 338.62-3.08 337.07-4.85 336.22-7.33 335.37-9.8 335.37-12.9L335.37-12.9Q335.37-15.95 336.22-18.45 337.07-20.95 338.62-22.73 340.17-24.5 342.37-25.45 344.57-26.4 347.22-26.4L347.22-26.4Q349.87-26.4 352.07-25.45 354.27-24.5 355.82-22.73 357.37-20.95 358.22-18.45 359.07-15.95 359.07-12.9L359.07-12.9Q359.07-9.8 358.22-7.33 357.37-4.85 355.82-3.08 354.27-1.3 352.07-0.35 349.87 0.6 347.22 0.6ZM363.82 0L363.82-2.3 367.52-2.3 367.52-22.55 363.82-23.2 363.82-24.9 371.52-26.4 371.52-21.9 371.77-21.9Q372.12-22.7 372.64-23.5 373.17-24.3 373.94-24.95 374.72-25.6 375.74-26 376.77-26.4 378.12-26.4L378.12-26.4Q380.32-26.4 381.64-25.35 382.97-24.3 382.97-22.3L382.97-22.3Q382.97-20.8 382.22-19.95 381.47-19.1 380.27-19.1L380.27-19.1Q378.92-19.1 378.12-19.83 377.32-20.55 377.32-21.7L377.32-21.7Q377.32-22.7 377.74-23.33 378.17-23.95 378.72-24.05L378.72-24.05 378.72-24.15Q378.52-24.2 378.22-24.23 377.92-24.25 377.47-24.25L377.47-24.25Q376.42-24.25 375.37-23.73 374.32-23.2 373.49-22.38 372.67-21.55 372.14-20.5 371.62-19.45 371.62-18.4L371.62-18.4 371.62-2.3 376.32-2.3 376.32 0 363.82 0ZM397.41 0.6L397.41 0.6Q394.66 0.6 392.49-0.38 390.31-1.35 388.81-3.1 387.31-4.85 386.51-7.35 385.71-9.85 385.71-12.9L385.71-12.9Q385.71-15.9 386.59-18.38 387.46-20.85 388.99-22.65 390.51-24.45 392.61-25.43 394.71-26.4 397.21-26.4L397.21-26.4Q399.76-26.4 401.76-25.5 403.76-24.6 405.14-22.98 406.51-21.35 407.26-19.1 408.01-16.85 408.01-14.2L408.01-14.2 408.01-13.05 390.26-13.05 390.26-11.75Q390.26-7.5 392.39-5.05 394.51-2.6 398.06-2.6L398.06-2.6Q401.16-2.6 402.99-3.88 404.81-5.15 405.86-7.2L405.86-7.2 407.51-6.15Q407.01-4.85 406.14-3.63 405.26-2.4 404.01-1.48 402.76-0.55 401.11 0.03 399.46 0.6 397.41 0.6ZM390.26-15.95L390.26-15.35 403.71-15.35 403.71-15.85Q403.71-17.6 403.34-19.1 402.96-20.6 402.16-21.7 401.36-22.8 400.14-23.43 398.91-24.05 397.21-24.05L397.21-24.05Q395.51-24.05 394.21-23.45 392.91-22.85 392.04-21.75 391.16-20.65 390.71-19.18 390.26-17.7 390.26-15.95L390.26-15.95Z" opacity="1" transform="matrix(1,0,0,1,0,0)" fill="#ffffff" class="wordmark-text-0" data-fill-palette-color="primary" id="text-0"></path></svg></g></svg></g></svg></g></svg></g><g transform="matrix(1,0,0,1,132.5044507101477,0)"><svg viewBox="0 0 130.51109857970462 129.55049855573387" height="129.55049855573387" width="130.51109857970462"><g><svg xmlns="http://www.w3.org/2000/svg" xmlns:xlink="http://www.w3.org/1999/xlink" version="1.1" x="0" y="0" viewBox="1.7420000000000004 2 61.00300000000001 60.554" style="enable-background:new 0 0 64 64;" xml:space="preserve" height="129.55049855573387" width="130.51109857970462" class="icon-icon-0" data-fill-palette-color="accent" id="icon-0"><path d="M10.312 45.669c-0.524 0.47-1.033 0.957-1.527 1.46-0.144 0.146-0.283 0.297-0.425 0.446-0.362 0.382-0.716 0.773-1.062 1.173-0.15 0.174-0.304 0.344-0.451 0.52-0.407 0.491-0.8 0.997-1.181 1.513-0.173 0.234-0.34 0.474-0.508 0.713-0.268 0.382-0.527 0.772-0.781 1.167-0.134 0.209-0.273 0.414-0.403 0.627C3.968 53.3 3.961 53.31 3.954 53.322c-0.003 0.004-0.003 0.01-0.005 0.014-0.825 1.358-1.568 2.78-2.207 4.27l1.838 0.788c0.222-0.518 0.473-1.018 0.72-1.52l0.715 4.291C5.094 61.646 5.511 62 6 62h4c0.127 0 0.253-0.024 0.372-0.071l4.751-1.901 6.735 0.962c0.459 0.068 0.899-0.19 1.07-0.618l1.878-4.697 7.723-4.827c0.25-0.156 0.418-0.415 0.46-0.707l1-7c0.073-0.507-0.25-0.987-0.747-1.112l-3.845-0.961-2.361-1.49c0.164-0.031 0.328-0.064 0.493-0.092 0.528-0.091 1.057-0.167 1.589-0.232 0.257-0.031 0.515-0.061 0.774-0.086 0.525-0.051 1.052-0.087 1.579-0.112 0.273-0.013 0.547-0.024 0.822-0.03 0.546-0.012 1.092-0.01 1.639 0.005 0.202 0.006 0.404 0.011 0.606 0.021 0.014 0.001 0.029 0.001 0.043 0.002 0.558 0.027 1.116 0.074 1.673 0.13 0.215 0.022 0.43 0.039 0.644 0.066 0.553 0.067 1.103 0.157 1.653 0.253 0.217 0.038 0.437 0.068 0.653 0.111 0.57 0.112 1.135 0.25 1.7 0.393 0.724 0.185 1.44 0.393 2.147 0.627 0.31 0.103 0.618 0.211 0.925 0.323 0.407 0.149 0.812 0.302 1.213 0.467 0.308 0.127 0.611 0.264 0.914 0.401 0.111 0.05 0.221 0.103 0.332 0.154l-3.709 1.06c-0.286 0.082-0.521 0.287-0.641 0.559-0.12 0.272-0.112 0.584 0.021 0.85l0.678 1.355-3.49 3.49c-0.391 0.391-0.391 1.023 0 1.414l4 4c0.212 0.212 0.503 0.321 0.806 0.288 0.298-0.029 0.567-0.191 0.733-0.44L48.535 49H51v3.419l-6.496 3.712c-0.077 0.044-0.148 0.098-0.211 0.161l-2 2c-0.337 0.337-0.39 0.865-0.125 1.262l2 3 1.664-1.109-1.545-2.318 1.326-1.326 6.884-3.934C52.808 53.69 53 53.359 53 53v-5c0-0.552-0.448-1-1-1h-4c-0.334 0-0.646 0.167-0.832 0.445l-3.323 4.985L41.414 50l3.293-3.293c0.304-0.304 0.38-0.769 0.188-1.154l-0.461-0.922 4.597-1.313c0.039 0.023 0.08 0.042 0.119 0.065 0.153 0.09 0.298 0.19 0.45 0.282 0.486 0.296 0.97 0.597 1.442 0.919 0.431 0.295 0.851 0.603 1.266 0.917 0.111 0.084 0.226 0.16 0.336 0.245 3.397 2.643 6.239 5.949 8.346 9.739l0.004-0.002c0.001 0.002 0.002 0.003 0.003 0.005l1.748-0.971c-1.154-2.078-2.512-4.001-4.033-5.758-0.028-0.032-0.059-0.062-0.087-0.095-0.476-0.545-0.965-1.075-1.473-1.586-0.108-0.109-0.223-0.21-0.332-0.318-0.435-0.426-0.874-0.847-1.33-1.248-0.173-0.152-0.354-0.295-0.53-0.444-0.404-0.342-0.809-0.682-1.228-1.004-0.228-0.175-0.465-0.339-0.697-0.509-0.015-0.011-0.029-0.021-0.044-0.032l1.922-4.614 2.99-6.478 2.992-5.984c0.122-0.244 0.139-0.528 0.047-0.785-0.092-0.257-0.286-0.465-0.535-0.576l-0.271-0.12 1.759-3.519c0.226-0.451 0.08-1-0.34-1.279l-3-2-3-2c-0.239-0.16-0.536-0.209-0.812-0.134-0.277 0.073-0.509 0.263-0.638 0.519l-2.345 4.691-0.354-0.157c-0.491-0.218-1.062-0.012-1.301 0.466l-3 6-3 6c-0.005 0.01-0.004 0.02-0.008 0.03-0.004 0.009-0.013 0.015-0.016 0.023l-1.691 3.947-1.406-7.731C40.897 29.346 40.483 29 40 29h-1.246l-1.793-6.275C36.839 22.296 36.446 22 36 22h-0.153l-1.861-11.165c-0.005-0.032-0.023-0.058-0.032-0.089C34.574 10.406 35 9.756 35 9V7c0-1.103-0.897-2-2-2V2h-2v3c-1.103 0-2 0.897-2 2v2c0 0.756 0.426 1.406 1.045 1.747-0.008 0.031-0.026 0.057-0.032 0.089L28.153 22H28c-0.446 0-0.839 0.296-0.961 0.725L25.246 29H24c-0.483 0-0.897 0.346-0.984 0.821l-1.441 7.924-3.647-9.117-4-10c-0.005-0.013-0.017-0.022-0.023-0.035-0.042-0.094-0.099-0.179-0.168-0.257-0.016-0.018-0.03-0.037-0.047-0.054-0.01-0.009-0.016-0.021-0.026-0.03l-9-8c-0.283-0.251-0.683-0.321-1.036-0.181-0.352 0.141-0.594 0.468-0.625 0.846l-1 12c-0.001 0.013 0.002 0.026 0.002 0.039-0.001 0.024 0.003 0.048 0.003 0.072 0.003 0.104 0.021 0.206 0.055 0.302 0.005 0.014 0.002 0.028 0.008 0.041l4 10 4.744 11.861c-0.075 0.065-0.15 0.129-0.225 0.195C10.498 45.508 10.404 45.587 10.312 45.669zM26.78 37.57C28.007 35.972 29.922 35 32 35c1.921 0 3.708 0.837 4.937 2.233-0.098-0.011-0.195-0.013-0.292-0.023-0.284-0.03-0.567-0.059-0.852-0.082-0.35-0.029-0.702-0.051-1.054-0.069-0.185-0.01-0.371-0.024-0.555-0.03-0.196-0.007-0.392-0.005-0.588-0.008C33.397 37.017 33.2 37 33 37c-0.191 0-0.379 0.018-0.57 0.021-0.088 0.002-0.177-0.002-0.265 0-0.348 0.008-0.694 0.029-1.041 0.048-0.352 0.019-0.704 0.038-1.055 0.068-0.158 0.014-0.316 0.026-0.474 0.042-0.326 0.033-0.651 0.078-0.976 0.12-0.29 0.037-0.581 0.068-0.87 0.113-0.157 0.024-0.313 0.057-0.47 0.084C27.114 37.524 26.946 37.539 26.78 37.57zM28.757 42.97l3.125 0.781-0.807 5.647-7.605 4.753c-0.18 0.113-0.32 0.28-0.399 0.477l-1.708 4.271-6.222-0.889c-0.175-0.025-0.351-0.004-0.513 0.061L9.808 60h-2.96l-0.992-5.952c0.011-0.017 0.022-0.033 0.033-0.05 0.308-0.491 0.632-0.97 0.964-1.441 0.158-0.224 0.319-0.445 0.482-0.664 0.312-0.42 0.633-0.832 0.964-1.235 0.152-0.185 0.308-0.367 0.464-0.549 0.347-0.403 0.704-0.798 1.07-1.182 0.133-0.14 0.266-0.281 0.402-0.418 0.464-0.47 0.94-0.928 1.431-1.368 0.071-0.063 0.144-0.124 0.215-0.186 0.326-0.286 0.666-0.556 1.003-0.829 0.507-0.41 1.026-0.801 1.555-1.178 0.172-0.123 0.342-0.249 0.517-0.368 0.553-0.378 1.12-0.733 1.694-1.075 0.152-0.09 0.299-0.187 0.452-0.275 0.707-0.405 1.428-0.784 2.166-1.134 0.055-0.026 0.111-0.052 0.167-0.078 0.741-0.347 1.496-0.666 2.265-0.956 0.405-0.153 0.819-0.286 1.231-0.422 0.456-0.151 0.916-0.289 1.378-0.419l4.159 2.625C28.556 42.902 28.654 42.944 28.757 42.97zM44.018 38.829l1.483-3.46 7.216 3.608-1.407 3.378c-0.215-0.138-0.437-0.26-0.654-0.392-0.219-0.133-0.438-0.267-0.66-0.396-0.088-0.051-0.173-0.106-0.261-0.156-0.025-0.014-0.048-0.031-0.073-0.045-0.001 0-0.002 0-0.003-0.001-0.346-0.195-0.699-0.373-1.051-0.555-0.152-0.079-0.302-0.161-0.456-0.238-0.585-0.292-1.178-0.566-1.778-0.824-0.05-0.022-0.1-0.046-0.15-0.067C45.498 39.374 44.765 39.085 44.018 38.829zM58.306 24.153l-1.443-0.641 1.525-3.051 1.323 0.882L58.306 24.153zM55.388 18.46l1.323 0.882-1.678 3.356-1.443-0.641L55.388 18.46zM51.282 23.673c0.052 0.055 0.098 0.115 0.164 0.159l3 2 3 2c0.134 0.09 0.288 0.134 0.445 0.152l-1.357 2.714-2.39-1.062-4.78-2.125L51.282 23.673zM48.467 29.302l1.2 0.533 6 2.667-2.143 4.642-7.183-3.591L48.467 29.302zM31 7h2l0.001 2H31V7zM31.847 12h0.306l1.667 10h-3.639L31.847 12zM28.754 24H29h6 0.246l1.429 5h-9.349L28.754 24zM24.834 31H26h12 1.166l1.239 6.816c-0.102-0.023-0.206-0.037-0.308-0.058-0.165-0.035-0.33-0.071-0.496-0.104C38.134 34.817 35.22 33 32 33c-3.429 0-6.517 2.033-7.877 5.179-0.14 0.038-0.277 0.083-0.416 0.122-0.07 0.02-0.14 0.034-0.21 0.054L24.834 31zM19.981 39.592c-0.398 0.164-0.791 0.337-1.181 0.516-0.133 0.061-0.267 0.12-0.4 0.183-0.668 0.317-1.325 0.654-1.969 1.012-0.07 0.039-0.137 0.08-0.207 0.119-0.016 0.009-0.032 0.019-0.049 0.028-0.027 0.015-0.053 0.031-0.079 0.046-0.571 0.326-1.131 0.669-1.681 1.027-0.069 0.045-0.14 0.089-0.209 0.134-0.602 0.399-1.191 0.815-1.766 1.252L8.3 33.557l8.143-3.257 3.69 9.224C20.081 39.545 20.032 39.571 19.981 39.592zM4.3 23.557l8.143-3.257 3.257 8.142L7.557 31.7 4.3 23.557zM4.831 13.076l6.296 5.596L4.131 21.47 4.831 13.076z" fill="#ffffff" data-fill-palette-color="accent"></path><path d="M10 23c-1.654 0-3 1.346-3 3s1.346 3 3 3 3-1.346 3-3S11.654 23 10 23zM10 27c-0.551 0-1-0.449-1-1s0.449-1 1-1 1 0.449 1 1S10.551 27 10 27z" fill="#ffffff" data-fill-palette-color="accent"></path></svg></g></svg></g><g></g></svg></g></svg></g></svg></g><defs></defs></svg><rect width="395.52" height="187.48619394385878" fill="none" stroke="none" visibility="hidden"></rect></g></svg></g></svg>